<svg width="48" height="48" viewBox="0 0 48 48" fill="none" xmlns="http://www.w3.org/2000/svg">
<path d="M25.9609 2.00319C25.9609 1.47276 26.1716 0.964053 26.5467 0.58898C26.9218 0.213908 27.4305 0.00319394 27.9609 0.00319394C33.2635 0.00901713 38.3471 2.11802 42.0966 5.86749C45.8461 9.61696 47.9551 14.7007 47.9609 20.0032C47.9609 20.5336 47.7502 21.0423 47.3751 21.4174C47 21.7925 46.4913 22.0032 45.9609 22.0032C45.4305 22.0032 44.9218 21.7925 44.5467 21.4174C44.1716 21.0423 43.9609 20.5336 43.9609 20.0032C43.9561 15.7612 42.2689 11.6943 39.2694 8.69475C36.2698 5.6952 32.2029 4.00796 27.9609 4.00319C27.4305 4.00319 26.9218 3.79248 26.5467 3.41741C26.1716 3.04233 25.9609 2.53363 25.9609 2.00319ZM27.9609 12.0032C30.0826 12.0032 32.1175 12.846 33.6178 14.3463C35.1181 15.8466 35.9609 17.8815 35.9609 20.0032C35.9609 20.5336 36.1716 21.0423 36.5467 21.4174C36.9218 21.7925 37.4305 22.0032 37.9609 22.0032C38.4913 22.0032 39 21.7925 39.3751 21.4174C39.7502 21.0423 39.9609 20.5336 39.9609 20.0032C39.9577 16.8216 38.6924 13.7712 36.4427 11.5214C34.1929 9.27167 31.1425 8.00637 27.9609 8.00319C27.4305 8.00319 26.9218 8.21391 26.5467 8.58898C26.1716 8.96405 25.9609 9.47276 25.9609 10.0032C25.9609 10.5336 26.1716 11.0423 26.5467 11.4174C26.9218 11.7925 27.4305 12.0032 27.9609 12.0032ZM46.1469 33.4812C47.3059 34.6434 47.9568 36.2178 47.9568 37.8592C47.9568 39.5006 47.3059 41.075 46.1469 42.2372L44.3269 44.3352C27.9469 60.0172 -11.9131 20.1672 3.52691 3.73519L5.82691 1.73519C6.99045 0.608548 8.55077 -0.0147079 10.1703 0.000263619C11.7899 0.0152351 13.3384 0.667231 14.4809 1.81519C14.5429 1.87719 18.2489 6.69119 18.2489 6.69119C19.3486 7.84645 19.9607 9.38105 19.9581 10.976C19.9555 12.5709 19.3383 14.1035 18.2349 15.2552L15.9189 18.1672C17.2006 21.2814 19.085 24.1117 21.4639 26.4954C23.8428 28.8791 26.6693 30.7692 29.7809 32.0572L32.7109 29.7272C33.8627 28.6246 35.395 28.0082 36.9895 28.0059C38.584 28.0037 40.118 28.6159 41.2729 29.7152C41.2729 29.7152 46.0849 33.4192 46.1469 33.4812ZM43.3949 36.3892C43.3949 36.3892 38.6089 32.7072 38.5469 32.6452C38.1349 32.2367 37.5781 32.0074 36.9979 32.0074C36.4177 32.0074 35.8609 32.2367 35.4489 32.6452C35.3949 32.7012 31.3609 35.9152 31.3609 35.9152C31.0891 36.1316 30.7655 36.2734 30.4222 36.3267C30.0789 36.38 29.7276 36.343 29.4029 36.2192C25.3718 34.7183 21.7104 32.3687 18.6666 29.3294C15.6228 26.29 13.2677 22.6321 11.7609 18.6032C11.6273 18.2741 11.5837 17.9154 11.6347 17.5639C11.6857 17.2124 11.8293 16.8808 12.0509 16.6032C12.0509 16.6032 15.2649 12.5672 15.3189 12.5152C15.7274 12.1032 15.9567 11.5464 15.9567 10.9662C15.9567 10.386 15.7274 9.82922 15.3189 9.41719C15.2569 9.35719 11.5749 4.56719 11.5749 4.56719C11.1567 4.19221 10.6109 3.99138 10.0494 4.00589C9.48789 4.02039 8.95319 4.24912 8.55491 4.64519L6.25491 6.64519C-5.02909 20.2132 29.5129 52.8392 41.4029 41.6032L43.2249 39.5032C43.6519 39.1077 43.9083 38.5617 43.94 37.9806C43.9718 37.3995 43.7763 36.8288 43.3949 36.3892Z" fill="black"/>
</svg>
