<svg width="52" height="53" viewBox="0 0 52 53" fill="none" xmlns="http://www.w3.org/2000/svg">
<g clip-path="url(#clip0_18_25)">
<path d="M23.8333 0.921143V7.42114H28.1667V0.921143H23.8333ZM9.14909 7.00643L6.08529 10.0702L10.681 14.6659L13.7448 11.6021L9.14909 7.00643ZM42.8509 7.00643L38.2552 11.6021L41.319 14.6659L45.9147 10.0702L42.8509 7.00643ZM26 11.7545C17.6489 11.7545 10.8333 18.5701 10.8333 26.9211C10.8333 32.918 14.4216 37.976 19.5 40.429V46.4211C19.5 48.7894 21.465 50.7545 23.8333 50.7545H28.1667C30.535 50.7545 32.5 48.7894 32.5 46.4211V40.429C37.5784 37.976 41.1667 32.918 41.1667 26.9211C41.1667 18.5701 34.3511 11.7545 26 11.7545ZM26 16.0878C32.0096 16.0878 36.8333 20.9115 36.8333 26.9211C36.8333 31.6539 33.8116 35.6373 29.6097 37.1239L28.1667 37.6318V46.4211H23.8333V37.6318L22.3903 37.1239C18.1884 35.6373 15.1667 31.6539 15.1667 26.9211C15.1667 20.9115 19.9904 16.0878 26 16.0878ZM0 24.7545V29.0878H6.5V24.7545H0ZM45.5 24.7545V29.0878H52V24.7545H45.5ZM10.681 39.1763L6.08529 43.7721L9.14909 46.8359L13.7448 42.2402L10.681 39.1763ZM41.319 39.1763L38.2552 42.2402L42.8509 46.8359L45.9147 43.7721L41.319 39.1763Z" fill="black" fill-opacity="0.9"/>
</g>
<defs>
<clipPath id="clip0_18_25">
<rect width="52" height="52" fill="white" transform="translate(0 0.921143)"/>
</clipPath>
</defs>
</svg>
