<svg width="48" height="48" viewBox="0 0 48 48" fill="none" xmlns="http://www.w3.org/2000/svg">
<path d="M24.0328 47.9999C10.7961 48.0362 0.0362558 37.3204 9.13946e-05 24.0657C-0.036073 10.8109 10.6649 0.0363034 23.9016 8.9556e-05C27.994 -0.0111038 32.0209 1.02715 35.599 3.0159L38.7008 4.73987L35.617 6.49987C26.5159 11.6745 23.3272 23.2574 28.4948 32.3709C30.4843 35.8796 33.5388 38.6619 37.2148 40.3139L40.4524 41.7759L37.5225 43.776C33.5568 46.5195 28.8527 47.9925 24.0328 47.9999ZM24.0328 3.99989C13.0022 3.99989 4.06008 12.9542 4.06008 23.9999C4.06008 35.0456 13.0022 43.9999 24.0328 43.9999C26.8995 44.0004 29.7317 43.3738 32.3314 42.1639C21.7631 35.1763 18.8526 20.9327 25.8307 10.3499C27.1352 8.37142 28.7379 6.60719 30.5818 5.11998C28.4788 4.37444 26.2637 3.99556 24.0328 3.99989ZM38.6129 19.3999L40.9436 24.0659L43.2765 19.3999L47.9361 17.0659L43.2765 14.7299L40.9457 10.0639L38.6129 14.7299L33.9553 17.0639L38.6129 19.3999ZM46.0027 33.9999C44.8996 33.9999 44.0054 34.8954 44.0054 36C44.0054 37.1045 44.8996 38 46.0027 38C47.1058 38 48 37.1045 48 36C48 34.8954 47.1058 33.9999 46.0027 33.9999ZM34.0191 25.9999C32.9161 25.9999 32.0218 26.8954 32.0218 28C32.0218 29.1046 32.9161 30 34.0191 30C35.1222 30 36.0164 29.1046 36.0164 28C36.0164 26.8954 35.1222 25.9999 34.0191 25.9999Z" fill="#1C1C1C"/>
</svg>
