<svg width="48" height="48" viewBox="0 0 48 48" fill="none" xmlns="http://www.w3.org/2000/svg">
<rect width="48" height="48" transform="matrix(1 0 0 -1 0 48)" fill="black"/>
<path d="M24 14C18.48 14 14 18.48 14 24C14 29.52 18.48 34 24 34C29.52 34 34 29.52 34 24C34 18.48 29.52 14 24 14ZM24 30C20.7 30 18 27.3 18 24C18 20.7 20.7 18 24 18C27.3 18 30 20.7 30 24C30 27.3 27.3 30 24 30ZM26 40V46C26 47.1 25.1 48 24 48C22.9 48 22 47.1 22 46V40C22 38.9 22.9 38 24 38C25.1 38 26 38.9 26 40ZM26 2V8C26 9.1 25.1 10 24 10C22.9 10 22 9.1 22 8V2C22 0.900002 22.9 0 24 0C25.1 0 26 0.900002 26 2ZM10 24C10 25.1 9.1 26 8 26H2C0.9 26 0 25.1 0 24C0 22.9 0.9 22 2 22H8C9.1 22 10 22.9 10 24ZM48 24C48 25.1 47.1 26 46 26H40C38.9 26 38 25.1 38 24C38 22.9 38.9 22 40 22H46C47.1 22 48 22.9 48 24ZM13.42 34.58C14.2 35.36 14.2 36.62 13.42 37.4L9.42 41.4C8.64 42.18 7.38 42.18 6.6 41.4C5.82 40.62 5.82 39.36 6.6 38.58L10.6 34.58C11 34.18 11.5 34 12.02 34C12.54 34 13.04 34.2 13.44 34.58H13.42ZM41.42 6.58C42.2 7.36 42.2 8.62 41.42 9.4L37.42 13.4C36.64 14.18 35.38 14.18 34.6 13.4C33.82 12.62 33.82 11.36 34.6 10.58L38.6 6.58C39 6.18 39.5 6 40.02 6C40.54 6 41.04 6.2 41.44 6.58H41.42ZM9.42 6.58L13.42 10.58C14.2 11.36 14.2 12.62 13.42 13.4C12.64 14.18 11.38 14.18 10.6 13.4L6.6 9.4C5.82 8.62 5.82 7.36 6.6 6.58C7 6.18 7.5 6 8.02 6C8.54 6 9.04 6.2 9.44 6.58H9.42ZM37.42 34.58L41.42 38.58C42.2 39.36 42.2 40.62 41.42 41.4C40.64 42.18 39.38 42.18 38.6 41.4L34.6 37.4C33.82 36.62 33.82 35.36 34.6 34.58C35 34.18 35.5 34 36.02 34C36.54 34 37.04 34.2 37.44 34.58H37.42Z" fill="white"/>
</svg>
