<svg width="54" height="50" viewBox="0 0 54 50" fill="none" xmlns="http://www.w3.org/2000/svg">
<path d="M43.3333 40.7792H41.2644C39.0867 40.7792 37.0178 41.4927 35.4933 42.7815L30.8383 46.6709C28.715 48.443 25.2578 48.443 23.1344 46.6709L18.4794 42.7815C16.955 41.4927 14.8589 40.7792 12.7083 40.7792H10.6667C6.14778 40.7792 2.5 37.7183 2.5 33.944V8.83521C2.5 5.06085 6.14778 2 10.6667 2H43.3333C47.8522 2 51.5 5.06085 51.5 8.83521V33.944C51.5 37.6953 47.8522 40.7792 43.3333 40.7792Z" stroke="black" stroke-width="4" stroke-miterlimit="10" stroke-linecap="round" stroke-linejoin="round"/>
<path d="M26.9997 20.3887C30.5029 20.3887 33.3428 17.9878 33.3428 15.0262C33.3428 12.0647 30.5029 9.66397 26.9997 9.66397C23.4968 9.66397 20.657 12.0647 20.657 15.0262C20.657 17.9878 23.4968 20.3887 26.9997 20.3887Z" stroke="black" stroke-width="4" stroke-linecap="round" stroke-linejoin="round"/>
<path d="M37.8889 33.4149C37.8889 29.2723 33.0161 25.9122 27 25.9122C20.9839 25.9122 16.1111 29.2723 16.1111 33.4149" stroke="black" stroke-width="4" stroke-linecap="round" stroke-linejoin="round"/>
</svg>
